PathFileType	4	(X/Y/Z)	Patient4_TMGait_0pt8_01_left_47.trc.trc
DataRate	CameraRate	NumFrames	NumMarkers	Units	OrigDataRate	OrigDataStartFrame	OrigNumFrames
90.322580645161	90.322580645161	4	33	mm	90.322580645161	124	       141
Frame#	Time	Sacral			L.Shoulder			Chest			R.Shoulder			Neck			R.ASIS			L.ASIS			R.Thigh.Superior			R.Thigh.Lateral			R.Thigh.Inferior			R.Patella			L.Thigh.Superior			L.Thigh.Lateral			L.Thigh.Inferior			L.Patella			L.Shank.Superior			L.Shank.Lateral			L.Shank.Inferior			R.Shank.Superior			R.Shank.Lateral			R.Shank.Inferior			R.Heel			R.Midfoot.Superior			R.Midfoot.Lateral			R.Toe			L.Heel			L.Midfoot.Lateral			L.Midfoot.Superior			L.Toe			L.Elbow			L.Wrist			R.Elbow			R.Wrist			
		X1	Y1	Z1	X2	Y2	Z2	X3	Y3	Z3	X4	Y4	Z4	X5	Y5	Z5	X6	Y6	Z6	X7	Y7	Z7	X8	Y8	Z8	X9	Y9	Z9	X10	Y10	Z10	X11	Y11	Z11	X12	Y12	Z12	X13	Y13	Z13	X14	Y14	Z14	X15	Y15	Z15	X16	Y16	Z16	X17	Y17	Z17	X18	Y18	Z18	X19	Y19	Z19	X20	Y20	Z20	X21	Y21	Z21	X22	Y22	Z22	X23	Y23	Z23	X24	Y24	Z24	X25	Y25	Z25	X26	Y26	Z26	X27	Y27	Z27	X28	Y28	Z28	X29	Y29	Z29	X30	Y30	Z30	X31	Y31	Z31	X32	Y32	Z32	X33	Y33	Z33	

124	53.701785714286	890.276718590343	995.341523254221	530.488378918544	1045.478391141448	1411.506840251619	324.167288086672	1172.129852891528	1341.866732983463	468.196402247861	1120.478008885876	1423.593975693715	649.258348318653	1056.341331579593	1475.520346742135	478.703597090507	1120.845994751791	921.696751203173	624.462961209759	1084.518458898843	939.373500281466	350.529248206983	1100.571278820067	705.792219592843	602.310338342139	988.471766263025	621.608880713728	668.352591209449	1039.513478622645	550.347734202297	587.423044323773	1012.213648586172	466.584278105395	592.781431892373	1164.910339259033	764.649859537401	389.078262388385	1119.948447973398	634.154086814400	309.782516931597	1224.534561357142	579.393559534779	372.145075929418	1251.925968697099	515.810605081949	369.930373353609	1239.974973381177	443.086801919217	358.130132546533	1182.277520964479	308.580299598377	310.402845145631	1277.439216745766	217.206663740124	365.276302054446	967.511098003948	386.557138365227	601.980484487779	877.252372564024	299.724517046951	665.527292988965	896.896299549390	198.247448416255	602.721761764486	736.207146914065	47.223184033696	573.946034613310	907.496960145321	96.961724420809	613.699403467650	816.582461835680	39.090135429201	650.983117550758	1024.800709895064	41.173952425603	648.577241629831	1207.797509992264	37.872869725611	408.327079884813	1280.386379482530	42.796266203024	326.996360679501	1347.963146563214	122.034338841619	346.086485418587	1482.221327830179	96.039317900594	318.926341975804	887.165228649684	1092.348727761993	251.993156765604	829.485025024092	839.921789535893	272.728009214381	1321.236217130016	1165.848360221962	753.437970942395	1460.806000544838	1342.904212847068	654.470274682060	
125	53.712857142857	891.789031408767	993.523524193668	527.877656757861	1045.619208464828	1409.843355390877	321.758888801856	1172.513907748279	1340.700436305520	465.780851267570	1120.441380262708	1422.320753438424	646.803480159822	1056.331021216300	1473.879499827612	476.377721715731	1122.265859532567	919.751946394884	622.314646497861	1086.531726440475	937.601047445527	348.351274988960	1101.434648404205	703.651693844396	600.311744489347	988.932262980803	619.802908091083	666.245173984673	1039.888501385683	548.131285949068	585.450118312041	1011.737218442961	463.589812456902	590.820753043582	1167.784862527493	763.258809673588	387.101460024382	1121.172230565460	632.173702801153	309.374979099707	1226.420399958009	577.907031923132	370.815823691368	1252.470396260706	513.075490319534	369.539110140498	1239.985231854503	439.985089398537	357.915121086830	1180.182230437779	306.289900955063	310.666812456150	1273.573293882021	213.627072494421	366.129048781150	965.258573214672	384.321321475668	600.277811146139	873.408869219953	299.547514958523	664.484919406926	890.670587648327	197.557990717014	602.056056922217	727.360552019755	48.577950699337	574.204381267122	899.143422724157	97.213305400064	613.778521787634	807.820301971860	39.809605300538	651.087376566871	1016.047883132277	40.711049654675	648.711280584091	1199.788332550902	37.390161642389	409.984293828393	1271.574683037041	40.699823193577	327.694270444661	1342.047074094376	117.053652881709	347.130625113569	1475.251925887997	86.365319895091	318.155261585575	885.281065212946	1091.997682484117	250.975970443041	823.776791258479	840.611000935788	271.318616209557	1324.815079061658	1168.541953691893	751.100904424710	1458.299377629092	1349.439701221171	651.369438792954	
126	53.723928571429	893.245366049014	991.747367028209	525.177943338368	1045.932712580640	1408.206410387026	319.209819274518	1172.934354554087	1339.624008344050	463.368767083973	1120.292917492729	1421.132449326721	644.340006464862	1056.375840556754	1472.359882148680	473.905401398765	1123.703191008690	917.941027737020	620.141791055775	1088.552456500087	936.027721303026	346.195914383117	1102.760806582706	701.671058011446	598.229423676204	989.998713134351	617.938559681210	663.951191985595	1041.102249059854	545.891560263255	583.370938163641	1012.201667497062	460.337136173172	588.839290496022	1170.741488488953	762.053721342949	384.994447966926	1122.715447581526	630.593226091032	308.636272443734	1228.543419983274	576.727059918553	369.396215817638	1253.281358576114	510.689678149431	368.984474721170	1240.255186320649	437.206004070445	357.549558726785	1178.413718241383	304.398588025086	310.438218955148	1269.689373661724	210.328205104795	366.756225923573	963.652855750338	382.032399028347	598.536351269571	870.068062258015	299.566602144008	663.398354079832	884.771513460153	197.045287886500	601.407106110230	718.558226914141	50.512696023244	574.546938212344	890.985952603947	97.547436517849	613.937632892666	799.104382011937	40.817781677445	651.222822994113	1007.322205137896	40.213791581250	648.842792034109	1191.285334767959	37.165560056332	411.192877531578	1262.452432285310	38.923392759362	328.104683828620	1335.789499131976	112.381544034195	348.064646827541	1467.933714703290	77.029285836525	317.588880859674	884.361091654383	1091.169862164066	249.669747817031	819.328925909289	840.817021242321	269.581617119131	1327.497009696029	1170.461698932196	748.922707097521	1455.641614300165	1354.570915733788	648.519565924651	
127	53.735000000000	894.606934887909	990.090827948479	522.433403603351	1046.404734724487	1406.679312717730	316.556690412448	1173.385553616710	1338.699976454134	460.982210049282	1120.063376416323	1420.098212981905	641.891354832583	1056.480346572157	1471.039252002550	471.315429720263	1125.129275637568	916.339425479260	617.918826233743	1090.507857223166	934.755818390173	344.043953710613	1104.529249622373	699.926145928794	596.029500674681	991.702808477382	616.070028005679	661.479181982546	1043.188339926566	543.697202925604	581.181549639895	1013.685362743693	456.888729520839	586.893194688647	1173.670325363097	761.124604672317	382.770298396780	1124.563112229381	629.502613960686	307.514663617028	1230.809585431992	575.909708074036	367.889787606502	1254.333576656060	508.775468652016	368.230085073816	1240.769678254625	434.860037638838	357.020852304815	1177.024192311360	302.994107579543	309.707388303267	1265.868939272695	207.461364549528	367.147481495720	962.759573752431	379.769128466191	596.800286600732	867.287826170316	299.878967922938	662.271606317636	879.280242174580	196.807771256321	600.791807905323	709.878481363323	53.199336216071	574.947361406250	883.102446528320	97.976612016229	614.171025009023	790.477564009095	42.219485083246	651.374937274018	998.620997893528	39.704171713818	648.960770519151	1182.591683831815	37.164142221868	411.961867724628	1253.333148908153	37.539799894681	328.262787953978	1329.310027075481	108.275700723886	348.864764827033	1460.441288091587	68.637261152694	317.252306344343	884.416917135941	1089.917649578669	248.049786357487	816.233347020546	840.543031907673	267.510851774613	1329.278029523696	1171.550970592815	746.915877391770	1452.888053143253	1358.303054394755	645.926391250870	
